<svg xmlns="http://www.w3.org/2000/svg"><symbol viewBox="0 0 12 26" fill="none" id="slash"><g id="Assets / Slash"><path id="Slash" fill-rule="evenodd" clip-rule="evenodd" d="M8.728 0h3.223L3.556 26H.333L8.728 0z" fill="#F0145A"/></g></symbol><symbol viewBox="0 0 24 25" id="facebook"><g clip-path="url(#a)"><path d="M24 12.573C24 5.905 18.627.5 12 .5S0 5.905 0 12.573C0 18.6 4.388 23.594 10.125 24.5v-8.437H7.078v-3.49h3.047v-2.66c0-3.025 1.791-4.697 4.533-4.697 1.313 0 2.686.236 2.686.236v2.971H15.83c-1.491 0-1.956.93-1.956 1.886v2.264h3.328l-.532 3.49h-2.796V24.5C19.612 23.594 24 18.6 24 12.573z"/></g><defs><clipPath id="a"><path d="M0 .5h24v24H0z"/></clipPath></defs></symbol><symbol viewBox="0 0 697 799" fill="none" id="h-symbol"><g fill-rule="evenodd" clip-path="url(#a)" clip-rule="evenodd"><path d="M245.112 340h186.97c53.711 0 98.536 22.912 126.408 61.63 27.85 38.72 28.709 103.326 12.468 153.868l-20.764 64.525C541.522 646.966 500.918 774.384 493 799H391s1.559 1.366 86.767-263.5c7.523-23.374 11.819-61.315 0-77.723-11.799-16.407-31.707-26.117-58.049-26.117H266.886c-30.01 0-56.603 19.518-65.887 48.345L245.112 340z"/><path fill="#F0145A" d="M99.344 799H-.368C84.498 532.509 170.329 266.331 255.698 0h99.578a633.16 633.16 0 01-1.277 4.006C215.866 429.03 262.985 285.497 99.344 799z"/></g><defs><linearGradient id="b" x1="521.823" x2="268.503" y1="798.999" y2="516.696" gradientUnits="userSpaceOnUse"><stop stop-color="#F0145A"/><stop offset="1" stop-color="#693264"/></linearGradient><clipPath id="a"><path d="M0 0h697v799H0z"/></clipPath></defs></symbol><symbol viewBox="0 0 24 24" fill="none" id="telegram"><g id="Assets / Social / Telegram"><path id="Vector" d="M9 17.941l-1.5-4.5 16.5-12L.933 10.312s-1.008.345-.929.983c.08.637.903.928.903.928l5.363 1.805 2.43 7.73 4.113-3.616-.01-.007 5.41 4.149c1.46.637 1.99-.69 1.99-.69L24 1.44 9 17.94z" fill="#3CACDC"/></g></symbol><symbol viewBox="0 0 24 24" fill="none" id="facebook-publications"><g clip-path="url(#clip0_22724_9562)"><path d="M22.675 0H1.325C.593 0 0 .593 0 1.325v21.35C0 23.407.593 24 1.325 24h11.494v-9.294H9.69v-3.621h3.129V8.41c0-3.099 1.893-4.784 4.659-4.784 1.324 0 2.463.095 2.794.14v3.24h-1.92c-1.5 0-1.792.72-1.792 1.77v2.31h3.585l-.465 3.63h-3.12V24h6.116c.732 0 1.324-.593 1.324-1.325V1.325C24 .593 23.407 0 22.675 0z" fill="#435695"/></g><defs><clipPath id="clip0_22724_9562"><path fill="#fff" d="M0 0h24v24H0z"/></clipPath></defs></symbol><symbol viewBox="0 0 24 24" fill="none" id="linkedin"><g id="Assets / Social / LinkedIn" clip-path="url(#clip0_22724_9572)"><path id="Vector" d="M3.6 9h3.6v11.4H3.6V9zm1.8-5.7c1.2 0 2.1.9 2.1 2.1-.15 1.05-1.05 2.1-2.1 2.1-1.2 0-2.1-1.05-2.1-2.1 0-1.2.9-2.1 2.1-2.1zM9.3 9h3.45v1.5c.75-1.2 2.1-1.8 3.45-1.8 3.6 0 4.2 2.4 4.2 5.4v6.3h-3.6v-5.55c0-1.35 0-3-1.8-3s-2.1 1.5-2.1 3v5.7H9.3V9zm10.2-9h-15C1.5 0 0 1.5 0 4.5v15c0 3 1.5 4.5 4.5 4.5h15c3 0 4.5-1.5 4.5-4.5v-15c0-3-1.5-4.5-4.5-4.5z" fill="#1178B3"/></g><defs><clipPath id="clip0_22724_9572"><path fill="#fff" d="M0 0h24v24H0z"/></clipPath></defs></symbol></svg>