	<svg xmlns="http://www.w3.org/2000/svg">
	<symbol  viewBox="0 0 12 26" fill="none" id="slash" >
	<g id="Assets / Slash">
	<path id="Slash" fill-rule="evenodd" clip-rule="evenodd" d="M8.72827 0H11.9505L3.55574 26H0.333496L8.72827 0Z" fill="#F0145A"/>
	</g>
	</symbol>

	<symbol viewBox="0 0 24 25" id="facebook-header">
		<g clip-path="url(#a)"><path fill="#fff" d="M24 12.573C24 5.905 18.627.5 12 .5S0 5.905 0 12.573C0 18.6 4.388 23.594 10.125 24.5v-8.437H7.078v-3.49h3.047v-2.66c0-3.025 1.791-4.697 4.533-4.697 1.313 0 2.686.236 2.686.236v2.971H15.83c-1.491 0-1.956.93-1.956 1.886v2.264h3.328l-.532 3.49h-2.796V24.5C19.612 23.594 24 18.6 24 12.573Z"/>
		</g><defs><clipPath id="a"><path fill="#fff" d="M0 .5h24v24H0z"/></clipPath></defs>
	</symbol>

	<symbol viewBox="0 0 39 38" fill="none" id="facebook-footer">
	<g id="Assets / Facebook-Footer" clip-path="url(#clip0_141665_2850)">
	<path id="Vector" d="M38.5 19.1161C38.5 8.55857 29.9934 0 19.5 0C9.00658 0 0.5 8.55857 0.5 19.1161C0.5 28.6575 7.44803 36.5659 16.5312 38V24.6419H11.707V19.1161H16.5312V14.9046C16.5312 10.1136 19.3678 7.46723 23.7078 7.46723C25.7866 7.46723 27.9609 7.84059 27.9609 7.84059V12.545H25.5651C23.2048 12.545 22.4688 14.0185 22.4688 15.5302V19.1161H27.7383L26.8959 24.6419H22.4688V38C31.552 36.5659 38.5 28.6575 38.5 19.1161Z" fill="#24A3FF"/>
	</g>
	<defs>
	<clipPath id="clip0_141665_2850">
	<rect width="38" height="38" fill="white" transform="translate(0.5)"/>
	</clipPath>
	</defs>
	</symbol>

	<symbol viewBox="0 0 697 799" fill="none" id="h-symbol">
		<g fill-rule="evenodd" clip-path="url(#a)" clip-rule="evenodd"><path  d="M245.112 340h186.97c53.711 0 98.536 22.912 126.408 61.63 27.85 38.72 28.709 103.326 12.468 153.868l-20.764 64.525C541.522 646.966 500.918 774.384 493 799H391s1.559 1.366 86.767-263.5c7.523-23.374 11.819-61.315 0-77.723-11.799-16.407-31.707-26.117-58.049-26.117H266.886c-30.01 0-56.603 19.518-65.887 48.345L245.112 340Z"/><path fill="#F0145A" d="M99.344 799H-.368C84.498 532.509 170.329 266.331 255.698 0h99.578c-.42 1.332-.845 2.667-1.277 4.006C215.866 429.03 262.985 285.497 99.344 799Z"/></g><defs><linearGradient id="b" x1="521.823" x2="268.503" y1="798.999" y2="516.696" gradientUnits="userSpaceOnUse"><stop stop-color="#F0145A"/><stop offset="1" stop-color="#693264"/></linearGradient><clipPath id="a"><path  d="M0 0h697v799H0z"/></clipPath></defs>
	</symbol>

	<symbol viewBox="0 0 24 25" fill="none" id="lightFacebook">
		<g id="Assets / Facebook-Header" clip-path="url(#clip0_141754_1146)">
		<path id="Vector" d="M24 12.5733C24 5.90541 18.6274 0.5 12 0.5C5.37258 0.5 0 5.90541 0 12.5733C0 18.5995 4.38823 23.5943 10.125 24.5V16.0633H7.07813V12.5733H10.125V9.91343C10.125 6.88755 11.9165 5.21615 14.6576 5.21615C15.9705 5.21615 17.3438 5.45195 17.3438 5.45195V8.42313H15.8306C14.3399 8.42313 13.875 9.35379 13.875 10.3086V12.5733H17.2031L16.6711 16.0633H13.875V24.5C19.6118 23.5943 24 18.5995 24 12.5733Z" fill="#B3B3BA"/>
		</g>
		<defs>
		<clipPath id="clip0_141754_1146">
		<rect width="24" height="24" fill="white" transform="translate(0 0.5)"/>
		</clipPath>
		</defs>
	</symbol>	

	<symbol viewBox="0 0 24 24" fill="none" id="telegram">
		<g id="Assets / Social / Telegram">
		<path id="Vector" d="M9 17.9414L7.5 13.4414L24 1.44141L0.932997 10.3124C0.932997 10.3124 -0.0750025 10.6574 0.00449746 11.2949C0.0839975 11.9324 0.907497 12.2234 0.907497 12.2234L6.27 14.0279L8.7 21.7589L12.813 18.1424L12.8025 18.1349L18.213 22.2839C19.6725 22.9214 20.2035 21.5939 20.2035 21.5939L24 1.44141L9 17.9414Z" fill="#3CACDC"/>
		</g>
	</symbol>

	<symbol viewBox="0 0 24 24" fill="none" id="facebook-publications">
		<g clip-path="url(#clip0_22724_9562)">
		<path d="M22.6755 0H1.3245C0.5925 0 0 0.5925 0 1.3245V22.6755C0 23.4075 0.5925 24 1.3245 24H12.819V14.706H9.69V11.085H12.819V8.4105C12.819 5.3115 14.712 3.6255 17.478 3.6255C18.8025 3.6255 19.941 3.7215 20.2725 3.7665V7.0065H18.3525C16.8525 7.0065 16.56 7.7265 16.56 8.7765V11.0865H20.145L19.68 14.7165H16.56V24H22.6755C23.4075 24 24 23.4075 24 22.6755V1.3245C24 0.5925 23.4075 0 22.6755 0Z" fill="#435695"/>
		</g>
		<defs>
		<clipPath id="clip0_22724_9562">
		<rect width="24" height="24" fill="white"/>
		</clipPath>
		</defs>
	</symbol>

	<symbol viewBox="0 0 24 24" fill="none" id="linkedin">
		<g id="Assets / Social / LinkedIn" clip-path="url(#clip0_22724_9572)">
		<path id="Vector" d="M3.6 9H7.2V20.4H3.6V9ZM5.4 3.3C6.6 3.3 7.5 4.2 7.5 5.4C7.35 6.45 6.45 7.5 5.4 7.5C4.2 7.5 3.3 6.45 3.3 5.4C3.3 4.2 4.2 3.3 5.4 3.3ZM9.3 9H12.75V10.5C13.5 9.3 14.85 8.7 16.2 8.7C19.8 8.7 20.4 11.1 20.4 14.1V20.4H16.8V14.85C16.8 13.5 16.8 11.85 15 11.85C13.2 11.85 12.9 13.35 12.9 14.85V20.55H9.3V9ZM19.5 0H4.5C1.5 0 0 1.5 0 4.5V19.5C0 22.5 1.5 24 4.5 24H19.5C22.5 24 24 22.5 24 19.5V4.5C24 1.5 22.5 0 19.5 0Z" fill="#1178B3"/>
		</g>
		<defs>
		<clipPath id="clip0_22724_9572">
		<rect width="24" height="24" fill="white"/>
		</clipPath>
		</defs>
	</symbol>


</svg>